<?xml version="1.0" encoding="UTF-8" standalone="no"?>
<!DOCTYPE svg PUBLIC "-//W3C//DTD SVG 1.1//EN"
 "http://www.w3.org/Graphics/SVG/1.1/DTD/svg11.dtd">
<!-- Generated by graphviz version 2.40.1 (20161225.0304)
 -->
<!-- Title: Tree Pages: 1 -->
<svg width="840pt" height="528pt"
 viewBox="0.00 0.00 839.83 528.00" xmlns="http://www.w3.org/2000/svg" xmlns:xlink="http://www.w3.org/1999/xlink">
<g id="graph0" class="graph" transform="scale(1 1) rotate(0) translate(4 524)">
<title>Tree</title>
<polygon fill="#ffffff" stroke="transparent" points="-4,4 -4,-524 835.8306,-524 835.8306,4 -4,4"/>
<!-- 0 -->
<g id="node1" class="node">
<title>0</title>
<path fill="#ffffff" stroke="#000000" d="M489.6091,-520C489.6091,-520 364.1458,-520 364.1458,-520 358.1458,-520 352.1458,-514 352.1458,-508 352.1458,-508 352.1458,-454 352.1458,-454 352.1458,-448 358.1458,-442 364.1458,-442 364.1458,-442 489.6091,-442 489.6091,-442 495.6091,-442 501.6091,-448 501.6091,-454 501.6091,-454 501.6091,-508 501.6091,-508 501.6091,-514 495.6091,-520 489.6091,-520"/>
<text text-anchor="start" x="360.0117" y="-504.8" font-family="Helvetica,sans-Serif" font-size="14.00" fill="#000000">petal width (cm) ≤ 0.8</text>
<text text-anchor="start" x="390.4863" y="-490.8" font-family="Helvetica,sans-Serif" font-size="14.00" fill="#000000">gini = 0.667</text>
<text text-anchor="start" x="381.1553" y="-476.8" font-family="Helvetica,sans-Serif" font-size="14.00" fill="#000000">samples = 150</text>
<text text-anchor="start" x="367.1382" y="-462.8" font-family="Helvetica,sans-Serif" font-size="14.00" fill="#000000">value = [50, 50, 50]</text>
<text text-anchor="start" x="382.3276" y="-448.8" font-family="Helvetica,sans-Serif" font-size="14.00" fill="#000000">class = setosa</text>
</g>
<!-- 1 -->
<g id="node2" class="node">
<title>1</title>
<path fill="#e58139" stroke="#000000" d="M396.7837,-399C396.7837,-399 300.9712,-399 300.9712,-399 294.9712,-399 288.9712,-393 288.9712,-387 288.9712,-387 288.9712,-347 288.9712,-347 288.9712,-341 294.9712,-335 300.9712,-335 300.9712,-335 396.7837,-335 396.7837,-335 402.7837,-335 408.7837,-341 408.7837,-347 408.7837,-347 408.7837,-387 408.7837,-387 408.7837,-393 402.7837,-399 396.7837,-399"/>
<text text-anchor="start" x="320.2725" y="-383.8" font-family="Helvetica,sans-Serif" font-size="14.00" fill="#000000">gini = 0.0</text>
<text text-anchor="start" x="307.0483" y="-369.8" font-family="Helvetica,sans-Serif" font-size="14.00" fill="#000000">samples = 50</text>
<text text-anchor="start" x="296.9243" y="-355.8" font-family="Helvetica,sans-Serif" font-size="14.00" fill="#000000">value = [50, 0, 0]</text>
<text text-anchor="start" x="304.3276" y="-341.8" font-family="Helvetica,sans-Serif" font-size="14.00" fill="#000000">class = setosa</text>
</g>
<!-- 0&#45;&gt;1 -->
<g id="edge1" class="edge">
<title>0&#45;&gt;1</title>
<path fill="none" stroke="#000000" d="M400.0343,-441.7677C392.4491,-430.6817 384.1823,-418.5994 376.5494,-407.4436"/>
<polygon fill="#000000" stroke="#000000" points="379.3933,-405.4019 370.8578,-399.1252 373.6161,-409.3547 379.3933,-405.4019"/>
<text text-anchor="middle" x="366.2506" y="-419.497" font-family="Helvetica,sans-Serif" font-size="14.00" fill="#000000">True</text>
</g>
<!-- 2 -->
<g id="node3" class="node">
<title>2</title>
<path fill="#ffffff" stroke="#000000" d="M572.3958,-406C572.3958,-406 439.3591,-406 439.3591,-406 433.3591,-406 427.3591,-400 427.3591,-394 427.3591,-394 427.3591,-340 427.3591,-340 427.3591,-334 433.3591,-328 439.3591,-328 439.3591,-328 572.3958,-328 572.3958,-328 578.3958,-328 584.3958,-334 584.3958,-340 584.3958,-340 584.3958,-394 584.3958,-394 584.3958,-400 578.3958,-406 572.3958,-406"/>
<text text-anchor="start" x="435.1187" y="-390.8" font-family="Helvetica,sans-Serif" font-size="14.00" fill="#000000">petal width (cm) ≤ 1.75</text>
<text text-anchor="start" x="477.2725" y="-376.8" font-family="Helvetica,sans-Serif" font-size="14.00" fill="#000000">gini = 0.5</text>
<text text-anchor="start" x="460.1553" y="-362.8" font-family="Helvetica,sans-Serif" font-size="14.00" fill="#000000">samples = 100</text>
<text text-anchor="start" x="450.0313" y="-348.8" font-family="Helvetica,sans-Serif" font-size="14.00" fill="#000000">value = [0, 50, 50]</text>
<text text-anchor="start" x="452" y="-334.8" font-family="Helvetica,sans-Serif" font-size="14.00" fill="#000000">class = versicolor</text>
</g>
<!-- 0&#45;&gt;2 -->
<g id="edge2" class="edge">
<title>0&#45;&gt;2</title>
<path fill="none" stroke="#000000" d="M454.0648,-441.7677C460.0853,-433.0798 466.5298,-423.7801 472.7571,-414.794"/>
<polygon fill="#000000" stroke="#000000" points="475.8209,-416.5176 478.64,-406.3046 470.0673,-412.5304 475.8209,-416.5176"/>
<text text-anchor="middle" x="483.1009" y="-426.7034" font-family="Helvetica,sans-Serif" font-size="14.00" fill="#000000">False</text>
</g>
<!-- 3 -->
<g id="node4" class="node">
<title>3</title>
<path fill="#4de88e" stroke="#000000" d="M471.3569,-292C471.3569,-292 332.3979,-292 332.3979,-292 326.3979,-292 320.3979,-286 320.3979,-280 320.3979,-280 320.3979,-226 320.3979,-226 320.3979,-220 326.3979,-214 332.3979,-214 332.3979,-214 471.3569,-214 471.3569,-214 477.3569,-214 483.3569,-220 483.3569,-226 483.3569,-226 483.3569,-280 483.3569,-280 483.3569,-286 477.3569,-292 471.3569,-292"/>
<text text-anchor="start" x="328.3877" y="-276.8" font-family="Helvetica,sans-Serif" font-size="14.00" fill="#000000">petal length (cm) ≤ 4.95</text>
<text text-anchor="start" x="365.4863" y="-262.8" font-family="Helvetica,sans-Serif" font-size="14.00" fill="#000000">gini = 0.168</text>
<text text-anchor="start" x="360.0483" y="-248.8" font-family="Helvetica,sans-Serif" font-size="14.00" fill="#000000">samples = 54</text>
<text text-anchor="start" x="349.9243" y="-234.8" font-family="Helvetica,sans-Serif" font-size="14.00" fill="#000000">value = [0, 49, 5]</text>
<text text-anchor="start" x="348" y="-220.8" font-family="Helvetica,sans-Serif" font-size="14.00" fill="#000000">class = versicolor</text>
</g>
<!-- 2&#45;&gt;3 -->
<g id="edge3" class="edge">
<title>2&#45;&gt;3</title>
<path fill="none" stroke="#000000" d="M470.0865,-327.7677C461.9157,-318.8111 453.1515,-309.2043 444.7192,-299.9611"/>
<polygon fill="#000000" stroke="#000000" points="447.0597,-297.3335 437.7343,-292.3046 441.8883,-302.0512 447.0597,-297.3335"/>
</g>
<!-- 10 -->
<g id="node11" class="node">
<title>10</title>
<path fill="#843de6" stroke="#000000" d="M680.3569,-292C680.3569,-292 541.3979,-292 541.3979,-292 535.3979,-292 529.3979,-286 529.3979,-280 529.3979,-280 529.3979,-226 529.3979,-226 529.3979,-220 535.3979,-214 541.3979,-214 541.3979,-214 680.3569,-214 680.3569,-214 686.3569,-214 692.3569,-220 692.3569,-226 692.3569,-226 692.3569,-280 692.3569,-280 692.3569,-286 686.3569,-292 680.3569,-292"/>
<text text-anchor="start" x="537.3877" y="-276.8" font-family="Helvetica,sans-Serif" font-size="14.00" fill="#000000">petal length (cm) ≤ 4.85</text>
<text text-anchor="start" x="574.4863" y="-262.8" font-family="Helvetica,sans-Serif" font-size="14.00" fill="#000000">gini = 0.043</text>
<text text-anchor="start" x="569.0483" y="-248.8" font-family="Helvetica,sans-Serif" font-size="14.00" fill="#000000">samples = 46</text>
<text text-anchor="start" x="558.9243" y="-234.8" font-family="Helvetica,sans-Serif" font-size="14.00" fill="#000000">value = [0, 1, 45]</text>
<text text-anchor="start" x="561.2759" y="-220.8" font-family="Helvetica,sans-Serif" font-size="14.00" fill="#000000">class = virginica</text>
</g>
<!-- 2&#45;&gt;10 -->
<g id="edge10" class="edge">
<title>2&#45;&gt;10</title>
<path fill="none" stroke="#000000" d="M542.0125,-327.7677C550.3444,-318.7216 559.2874,-309.0121 567.8791,-299.6839"/>
<polygon fill="#000000" stroke="#000000" points="570.4754,-302.0313 574.6758,-292.3046 565.3266,-297.2889 570.4754,-302.0313"/>
</g>
<!-- 4 -->
<g id="node5" class="node">
<title>4</title>
<path fill="#3de684" stroke="#000000" d="M265.3958,-178C265.3958,-178 132.3591,-178 132.3591,-178 126.3591,-178 120.3591,-172 120.3591,-166 120.3591,-166 120.3591,-112 120.3591,-112 120.3591,-106 126.3591,-100 132.3591,-100 132.3591,-100 265.3958,-100 265.3958,-100 271.3958,-100 277.3958,-106 277.3958,-112 277.3958,-112 277.3958,-166 277.3958,-166 277.3958,-172 271.3958,-178 265.3958,-178"/>
<text text-anchor="start" x="128.1187" y="-162.8" font-family="Helvetica,sans-Serif" font-size="14.00" fill="#000000">petal width (cm) ≤ 1.65</text>
<text text-anchor="start" x="162.4863" y="-148.8" font-family="Helvetica,sans-Serif" font-size="14.00" fill="#000000">gini = 0.041</text>
<text text-anchor="start" x="157.0483" y="-134.8" font-family="Helvetica,sans-Serif" font-size="14.00" fill="#000000">samples = 48</text>
<text text-anchor="start" x="146.9243" y="-120.8" font-family="Helvetica,sans-Serif" font-size="14.00" fill="#000000">value = [0, 47, 1]</text>
<text text-anchor="start" x="145" y="-106.8" font-family="Helvetica,sans-Serif" font-size="14.00" fill="#000000">class = versicolor</text>
</g>
<!-- 3&#45;&gt;4 -->
<g id="edge4" class="edge">
<title>3&#45;&gt;4</title>
<path fill="none" stroke="#000000" d="M332.3004,-213.9272C314.5462,-203.9569 295.3413,-193.1718 277.1828,-182.9744"/>
<polygon fill="#000000" stroke="#000000" points="278.7966,-179.8666 268.3636,-178.0218 275.369,-185.97 278.7966,-179.8666"/>
</g>
<!-- 7 -->
<g id="node8" class="node">
<title>7</title>
<path fill="#c09cf2" stroke="#000000" d="M468.3958,-178C468.3958,-178 335.3591,-178 335.3591,-178 329.3591,-178 323.3591,-172 323.3591,-166 323.3591,-166 323.3591,-112 323.3591,-112 323.3591,-106 329.3591,-100 335.3591,-100 335.3591,-100 468.3958,-100 468.3958,-100 474.3958,-100 480.3958,-106 480.3958,-112 480.3958,-112 480.3958,-166 480.3958,-166 480.3958,-172 474.3958,-178 468.3958,-178"/>
<text text-anchor="start" x="331.1187" y="-162.8" font-family="Helvetica,sans-Serif" font-size="14.00" fill="#000000">petal width (cm) ≤ 1.55</text>
<text text-anchor="start" x="365.4863" y="-148.8" font-family="Helvetica,sans-Serif" font-size="14.00" fill="#000000">gini = 0.444</text>
<text text-anchor="start" x="363.9414" y="-134.8" font-family="Helvetica,sans-Serif" font-size="14.00" fill="#000000">samples = 6</text>
<text text-anchor="start" x="353.8174" y="-120.8" font-family="Helvetica,sans-Serif" font-size="14.00" fill="#000000">value = [0, 2, 4]</text>
<text text-anchor="start" x="352.2759" y="-106.8" font-family="Helvetica,sans-Serif" font-size="14.00" fill="#000000">class = virginica</text>
</g>
<!-- 3&#45;&gt;7 -->
<g id="edge7" class="edge">
<title>3&#45;&gt;7</title>
<path fill="none" stroke="#000000" d="M401.8774,-213.7677C401.8774,-205.6172 401.8774,-196.9283 401.8774,-188.4649"/>
<polygon fill="#000000" stroke="#000000" points="405.3775,-188.3046 401.8774,-178.3046 398.3775,-188.3047 405.3775,-188.3046"/>
</g>
<!-- 5 -->
<g id="node6" class="node">
<title>5</title>
<path fill="#39e581" stroke="#000000" d="M111.6326,-64C111.6326,-64 12.1223,-64 12.1223,-64 6.1223,-64 .1223,-58 .1223,-52 .1223,-52 .1223,-12 .1223,-12 .1223,-6 6.1223,0 12.1223,0 12.1223,0 111.6326,0 111.6326,0 117.6326,0 123.6326,-6 123.6326,-12 123.6326,-12 123.6326,-52 123.6326,-52 123.6326,-58 117.6326,-64 111.6326,-64"/>
<text text-anchor="start" x="33.2725" y="-48.8" font-family="Helvetica,sans-Serif" font-size="14.00" fill="#000000">gini = 0.0</text>
<text text-anchor="start" x="20.0483" y="-34.8" font-family="Helvetica,sans-Serif" font-size="14.00" fill="#000000">samples = 47</text>
<text text-anchor="start" x="9.9243" y="-20.8" font-family="Helvetica,sans-Serif" font-size="14.00" fill="#000000">value = [0, 47, 0]</text>
<text text-anchor="start" x="8" y="-6.8" font-family="Helvetica,sans-Serif" font-size="14.00" fill="#000000">class = versicolor</text>
</g>
<!-- 4&#45;&gt;5 -->
<g id="edge5" class="edge">
<title>4&#45;&gt;5</title>
<path fill="none" stroke="#000000" d="M148.6416,-99.7647C136.3633,-90.1751 123.2404,-79.9258 111.0141,-70.3768"/>
<polygon fill="#000000" stroke="#000000" points="113.1626,-67.6138 103.1271,-64.2169 108.8538,-73.1306 113.1626,-67.6138"/>
</g>
<!-- 6 -->
<g id="node7" class="node">
<title>6</title>
<path fill="#8139e5" stroke="#000000" d="M244.5807,-64C244.5807,-64 153.1741,-64 153.1741,-64 147.1741,-64 141.1741,-58 141.1741,-52 141.1741,-52 141.1741,-12 141.1741,-12 141.1741,-6 147.1741,0 153.1741,0 153.1741,0 244.5807,0 244.5807,0 250.5807,0 256.5807,-6 256.5807,-12 256.5807,-12 256.5807,-52 256.5807,-52 256.5807,-58 250.5807,-64 244.5807,-64"/>
<text text-anchor="start" x="170.2725" y="-48.8" font-family="Helvetica,sans-Serif" font-size="14.00" fill="#000000">gini = 0.0</text>
<text text-anchor="start" x="160.9414" y="-34.8" font-family="Helvetica,sans-Serif" font-size="14.00" fill="#000000">samples = 1</text>
<text text-anchor="start" x="150.8174" y="-20.8" font-family="Helvetica,sans-Serif" font-size="14.00" fill="#000000">value = [0, 0, 1]</text>
<text text-anchor="start" x="149.2759" y="-6.8" font-family="Helvetica,sans-Serif" font-size="14.00" fill="#000000">class = virginica</text>
</g>
<!-- 4&#45;&gt;6 -->
<g id="edge6" class="edge">
<title>4&#45;&gt;6</title>
<path fill="none" stroke="#000000" d="M198.8774,-99.7647C198.8774,-91.4537 198.8774,-82.6472 198.8774,-74.2305"/>
<polygon fill="#000000" stroke="#000000" points="202.3775,-74.2168 198.8774,-64.2169 195.3775,-74.2169 202.3775,-74.2168"/>
</g>
<!-- 8 -->
<g id="node9" class="node">
<title>8</title>
<path fill="#8139e5" stroke="#000000" d="M377.5807,-64C377.5807,-64 286.1741,-64 286.1741,-64 280.1741,-64 274.1741,-58 274.1741,-52 274.1741,-52 274.1741,-12 274.1741,-12 274.1741,-6 280.1741,0 286.1741,0 286.1741,0 377.5807,0 377.5807,0 383.5807,0 389.5807,-6 389.5807,-12 389.5807,-12 389.5807,-52 389.5807,-52 389.5807,-58 383.5807,-64 377.5807,-64"/>
<text text-anchor="start" x="303.2725" y="-48.8" font-family="Helvetica,sans-Serif" font-size="14.00" fill="#000000">gini = 0.0</text>
<text text-anchor="start" x="293.9414" y="-34.8" font-family="Helvetica,sans-Serif" font-size="14.00" fill="#000000">samples = 3</text>
<text text-anchor="start" x="283.8174" y="-20.8" font-family="Helvetica,sans-Serif" font-size="14.00" fill="#000000">value = [0, 0, 3]</text>
<text text-anchor="start" x="282.2759" y="-6.8" font-family="Helvetica,sans-Serif" font-size="14.00" fill="#000000">class = virginica</text>
</g>
<!-- 7&#45;&gt;8 -->
<g id="edge8" class="edge">
<title>7&#45;&gt;8</title>
<path fill="none" stroke="#000000" d="M376.2095,-99.7647C370.4736,-90.9971 364.377,-81.678 358.5997,-72.8469"/>
<polygon fill="#000000" stroke="#000000" points="361.3575,-70.6691 352.9539,-64.2169 355.4996,-74.5013 361.3575,-70.6691"/>
</g>
<!-- 9 -->
<g id="node10" class="node">
<title>9</title>
<path fill="#9cf2c0" stroke="#000000" d="M518.6326,-64C518.6326,-64 419.1223,-64 419.1223,-64 413.1223,-64 407.1223,-58 407.1223,-52 407.1223,-52 407.1223,-12 407.1223,-12 407.1223,-6 413.1223,0 419.1223,0 419.1223,0 518.6326,0 518.6326,0 524.6326,0 530.6326,-6 530.6326,-12 530.6326,-12 530.6326,-52 530.6326,-52 530.6326,-58 524.6326,-64 518.6326,-64"/>
<text text-anchor="start" x="432.4863" y="-48.8" font-family="Helvetica,sans-Serif" font-size="14.00" fill="#000000">gini = 0.444</text>
<text text-anchor="start" x="430.9414" y="-34.8" font-family="Helvetica,sans-Serif" font-size="14.00" fill="#000000">samples = 3</text>
<text text-anchor="start" x="420.8174" y="-20.8" font-family="Helvetica,sans-Serif" font-size="14.00" fill="#000000">value = [0, 2, 1]</text>
<text text-anchor="start" x="415" y="-6.8" font-family="Helvetica,sans-Serif" font-size="14.00" fill="#000000">class = versicolor</text>
</g>
<!-- 7&#45;&gt;9 -->
<g id="edge9" class="edge">
<title>7&#45;&gt;9</title>
<path fill="none" stroke="#000000" d="M426.4453,-99.7647C431.9354,-90.9971 437.7707,-81.678 443.3004,-72.8469"/>
<polygon fill="#000000" stroke="#000000" points="446.3635,-74.5499 448.7043,-64.2169 440.4307,-70.8349 446.3635,-74.5499"/>
</g>
<!-- 11 -->
<g id="node12" class="node">
<title>11</title>
<path fill="#c09cf2" stroke="#000000" d="M681.9673,-178C681.9673,-178 539.7876,-178 539.7876,-178 533.7876,-178 527.7876,-172 527.7876,-166 527.7876,-166 527.7876,-112 527.7876,-112 527.7876,-106 533.7876,-100 539.7876,-100 539.7876,-100 681.9673,-100 681.9673,-100 687.9673,-100 693.9673,-106 693.9673,-112 693.9673,-112 693.9673,-166 693.9673,-166 693.9673,-172 687.9673,-178 681.9673,-178"/>
<text text-anchor="start" x="535.8325" y="-162.8" font-family="Helvetica,sans-Serif" font-size="14.00" fill="#000000">sepal length (cm) ≤ 5.95</text>
<text text-anchor="start" x="574.4863" y="-148.8" font-family="Helvetica,sans-Serif" font-size="14.00" fill="#000000">gini = 0.444</text>
<text text-anchor="start" x="572.9414" y="-134.8" font-family="Helvetica,sans-Serif" font-size="14.00" fill="#000000">samples = 3</text>
<text text-anchor="start" x="562.8174" y="-120.8" font-family="Helvetica,sans-Serif" font-size="14.00" fill="#000000">value = [0, 1, 2]</text>
<text text-anchor="start" x="561.2759" y="-106.8" font-family="Helvetica,sans-Serif" font-size="14.00" fill="#000000">class = virginica</text>
</g>
<!-- 10&#45;&gt;11 -->
<g id="edge11" class="edge">
<title>10&#45;&gt;11</title>
<path fill="none" stroke="#000000" d="M610.8774,-213.7677C610.8774,-205.6172 610.8774,-196.9283 610.8774,-188.4649"/>
<polygon fill="#000000" stroke="#000000" points="614.3775,-188.3046 610.8774,-178.3046 607.3775,-188.3047 614.3775,-188.3046"/>
</g>
<!-- 14 -->
<g id="node15" class="node">
<title>14</title>
<path fill="#8139e5" stroke="#000000" d="M819.7837,-171C819.7837,-171 723.9712,-171 723.9712,-171 717.9712,-171 711.9712,-165 711.9712,-159 711.9712,-159 711.9712,-119 711.9712,-119 711.9712,-113 717.9712,-107 723.9712,-107 723.9712,-107 819.7837,-107 819.7837,-107 825.7837,-107 831.7837,-113 831.7837,-119 831.7837,-119 831.7837,-159 831.7837,-159 831.7837,-165 825.7837,-171 819.7837,-171"/>
<text text-anchor="start" x="743.2725" y="-155.8" font-family="Helvetica,sans-Serif" font-size="14.00" fill="#000000">gini = 0.0</text>
<text text-anchor="start" x="730.0483" y="-141.8" font-family="Helvetica,sans-Serif" font-size="14.00" fill="#000000">samples = 43</text>
<text text-anchor="start" x="719.9243" y="-127.8" font-family="Helvetica,sans-Serif" font-size="14.00" fill="#000000">value = [0, 0, 43]</text>
<text text-anchor="start" x="722.2759" y="-113.8" font-family="Helvetica,sans-Serif" font-size="14.00" fill="#000000">class = virginica</text>
</g>
<!-- 10&#45;&gt;14 -->
<g id="edge14" class="edge">
<title>10&#45;&gt;14</title>
<path fill="none" stroke="#000000" d="M666.2845,-213.7677C683.0155,-201.9209 701.3533,-188.9364 717.984,-177.1606"/>
<polygon fill="#000000" stroke="#000000" points="720.369,-179.7604 726.5076,-171.1252 716.3238,-174.0476 720.369,-179.7604"/>
</g>
<!-- 12 -->
<g id="node13" class="node">
<title>12</title>
<path fill="#39e581" stroke="#000000" d="M660.6326,-64C660.6326,-64 561.1223,-64 561.1223,-64 555.1223,-64 549.1223,-58 549.1223,-52 549.1223,-52 549.1223,-12 549.1223,-12 549.1223,-6 555.1223,0 561.1223,0 561.1223,0 660.6326,0 660.6326,0 666.6326,0 672.6326,-6 672.6326,-12 672.6326,-12 672.6326,-52 672.6326,-52 672.6326,-58 666.6326,-64 660.6326,-64"/>
<text text-anchor="start" x="582.2725" y="-48.8" font-family="Helvetica,sans-Serif" font-size="14.00" fill="#000000">gini = 0.0</text>
<text text-anchor="start" x="572.9414" y="-34.8" font-family="Helvetica,sans-Serif" font-size="14.00" fill="#000000">samples = 1</text>
<text text-anchor="start" x="562.8174" y="-20.8" font-family="Helvetica,sans-Serif" font-size="14.00" fill="#000000">value = [0, 1, 0]</text>
<text text-anchor="start" x="557" y="-6.8" font-family="Helvetica,sans-Serif" font-size="14.00" fill="#000000">class = versicolor</text>
</g>
<!-- 11&#45;&gt;12 -->
<g id="edge12" class="edge">
<title>11&#45;&gt;12</title>
<path fill="none" stroke="#000000" d="M610.8774,-99.7647C610.8774,-91.4537 610.8774,-82.6472 610.8774,-74.2305"/>
<polygon fill="#000000" stroke="#000000" points="614.3775,-74.2168 610.8774,-64.2169 607.3775,-74.2169 614.3775,-74.2168"/>
</g>
<!-- 13 -->
<g id="node14" class="node">
<title>13</title>
<path fill="#8139e5" stroke="#000000" d="M793.5807,-64C793.5807,-64 702.1741,-64 702.1741,-64 696.1741,-64 690.1741,-58 690.1741,-52 690.1741,-52 690.1741,-12 690.1741,-12 690.1741,-6 696.1741,0 702.1741,0 702.1741,0 793.5807,0 793.5807,0 799.5807,0 805.5807,-6 805.5807,-12 805.5807,-12 805.5807,-52 805.5807,-52 805.5807,-58 799.5807,-64 793.5807,-64"/>
<text text-anchor="start" x="719.2725" y="-48.8" font-family="Helvetica,sans-Serif" font-size="14.00" fill="#000000">gini = 0.0</text>
<text text-anchor="start" x="709.9414" y="-34.8" font-family="Helvetica,sans-Serif" font-size="14.00" fill="#000000">samples = 2</text>
<text text-anchor="start" x="699.8174" y="-20.8" font-family="Helvetica,sans-Serif" font-size="14.00" fill="#000000">value = [0, 0, 2]</text>
<text text-anchor="start" x="698.2759" y="-6.8" font-family="Helvetica,sans-Serif" font-size="14.00" fill="#000000">class = virginica</text>
</g>
<!-- 11&#45;&gt;13 -->
<g id="edge13" class="edge">
<title>11&#45;&gt;13</title>
<path fill="none" stroke="#000000" d="M661.1133,-99.7647C673.3916,-90.1751 686.5145,-79.9258 698.7408,-70.3768"/>
<polygon fill="#000000" stroke="#000000" points="700.901,-73.1306 706.6278,-64.2169 696.5923,-67.6138 700.901,-73.1306"/>
</g>
</g>
</svg>
